<?xml version="1.0" encoding="utf-8"?>
<!-- Generator: Adobe Illustrator 18.0.0, SVG Export Plug-In . SVG Version: 6.00 Build 0)  -->
<!DOCTYPE svg PUBLIC "-//W3C//DTD SVG 1.1//EN" "http://www.w3.org/Graphics/SVG/1.1/DTD/svg11.dtd">
<svg version="1.1" id="Layer_1" xmlns="http://www.w3.org/2000/svg" xmlns:xlink="http://www.w3.org/1999/xlink" x="0px" y="0px"
	 viewBox="0 0 220.1 220.1" enable-background="new 0 0 220.1 220.1" xml:space="preserve">
<path fill="#FFFFFF" d="M220,16.2C220,6.7,212.7,0,204.1,0c-5.6,0-11.2,0-16.8,0c-51.2,0-102.4,0-153.6,0c-6,0-11.9,0-17.9,0
	c-5.5,0-10,2.4-13.2,7c-2,2.8-2.7,6-2.7,9.4c0,5.1,0,10.2,0,15.4c0,17.7,0,35.3,0,53c0,34.4,0,68.8,0,103.2c0,5.1,0,10.2,0,15.2
	c0,9.8,7.5,16.8,16.8,16.8c5.4,0,10.8,0,16.1,0c17.3,0,34.6,0,51.9,0c34.4,0,68.8,0,103.1,0c5.4,0,10.8,0,16.1,0
	c5.2,0,9.5-2.1,12.7-6.3c2.4-3,3.4-6.6,3.3-10.4c0-5.2,0-10.4,0-15.6c0-25.9,0-51.8,0-77.7c0-25.5,0-51.1,0-76.6
	C220,27.6,220,21.9,220,16.2z M177.1,67.9c-5,0-9.9-0.2-15.1-0.1c-6.6,0.1-8.4,2.5-8.7,8.9c-0.2,5.1,0.1,11.3,0.1,16.3h23.1
	c-0.9,9-1.8,17-2.8,26h-20.6v76h-34v-76h-14v-25h14.1c0-8-0.4-15.5-0.1-22.6c0.6-16.3,9.7-27.1,25.8-28.2
	c10.7-0.7,21.1-0.4,32.1-0.4V67.9z"/>
</svg>
