<?xml version="1.0" encoding="utf-8"?>
<!-- Generator: Adobe Illustrator 18.0.0, SVG Export Plug-In . SVG Version: 6.00 Build 0)  -->
<!DOCTYPE svg PUBLIC "-//W3C//DTD SVG 1.1//EN" "http://www.w3.org/Graphics/SVG/1.1/DTD/svg11.dtd">
<svg version="1.1" id="Layer_1" xmlns="http://www.w3.org/2000/svg" xmlns:xlink="http://www.w3.org/1999/xlink" x="0px" y="0px"
	 viewBox="0 0 220.1 220.1" enable-background="new 0 0 220.1 220.1" xml:space="preserve">
<g>
	<path fill="#FFFFFF" d="M68.1,103.1c-7.4,0-13.8,6.5-13.7,14c0,7.9,6,14,14,14c8.1,0,14-6,14-14.2C82.3,109.2,75.9,103,68.1,103.1z
		 M68.7,124.2c-3.9,0.1-7.1-3.1-7.1-7.1c0-3.8,2.8-6.6,6.7-6.6c4,0,6.9,2.8,7,6.7C75.3,120.7,72.1,124.1,68.7,124.2z"/>
	<path fill="#FFFFFF" d="M68.7,83.2c-20.1-0.9-34.3,17.6-34.5,33.1c-0.2,17.3,13.3,34.6,33.8,35c18.7,0.4,34.2-15,34.5-33.9
		C102.7,98.7,87.7,83.5,68.7,83.2z M68.4,137.6C57,137.6,48,128.6,48,117c0-10.8,9.2-20.2,19.8-20.2c11.9,0.1,21.1,8.9,21,20.3
		C88.7,128.5,79.7,137.5,68.4,137.6z"/>
	<path fill="#FFFFFF" d="M151.9,103.1c-7.8,0-14.1,6.3-14.1,14c0,7.8,6.3,14.1,14,14.1c7.7-0.1,14.2-6.5,14.2-14
		C166,109.6,159.5,103.1,151.9,103.1z M151.7,124.2c-3.7-0.1-6.9-3.5-6.8-7.2c0.1-3.7,3.1-6.6,6.8-6.6c4.3,0,6.7,2.5,6.7,6.8
		C158.4,121.2,155.4,124.3,151.7,124.2z"/>
	<path fill="#FFFFFF" d="M152.3,83.2c-18.1-0.8-33.8,14-34.6,32.6c-0.8,18.6,14.1,34.8,32.5,35.5c18.1,0.7,34.4-14,35.6-31.2
		C187.4,97.9,168.5,82.4,152.3,83.2z M151.7,137.6c-11.3,0-20.2-9-20.3-20.4c-0.1-11.1,9.2-20.4,20.3-20.5
		c11.4,0,20.4,9.1,20.4,20.6C172.1,128.6,163,137.6,151.7,137.6z"/>
	<path fill="#FFFFFF" d="M220.1,16.2c0-9.5-7.3-16.2-15.9-16.2C141.5-0.1,78.7-0.1,15.9,0c-5.5,0-10,2.4-13.2,7C0.8,9.8,0,13,0,16.4
		C0,39.2,0,62,0,84.8c0,39.5,0.1,79,0,118.5c0,9.8,7.5,16.8,16.8,16.8c22.7-0.1,45.4,0,68,0c39.8,0,79.5,0,119.2,0
		c5.2,0,9.5-2.1,12.7-6.3c2.4-3,3.4-6.6,3.3-10.4c0-31.1,0-62.2,0-93.4C220.1,78.7,220.1,47.4,220.1,16.2z M162.7,158.2
		c-14.7,3.8-28.4,0.6-39.9-9.9c-1.1-1-2.2-2.1-3.4-3.2c-0.2-0.1-0.4-0.2-0.9-0.4c-2.6,4.4-5.2,8.8-8.1,13.5
		c-3.3-4.6-6.3-8.8-9.5-13.2c-2,1.8-3.8,3.5-5.8,5.1c-15,12.7-39.6,12.6-54.7-0.7c-15.4-13.5-19.5-35.9-8.8-53.6
		c2.2-3.7,2.2-6.6,0.4-10c-1.6-3.1-3.3-6.1-5.2-9.6c8.9,0,17.3,0,25.8,0c1.2,0,2.9-0.2,3.6-1c7.3-7.9,16.9-10.9,27-12.7
		c18.9-3.3,37.9-3.3,56.7,1.1c8.4,1.9,16.1,5.2,22.2,11.5c0.8,0.8,2.3,1.1,3.6,1.1c7.8,0.1,15.6,0.1,23.4,0.2c0.6,0,1.3,0.1,2.2,0.2
		c-1.8,3.4-3.3,6.5-5.1,9.6c-1.4,2.6-1.2,4.6,0.5,7.2C203.3,117.8,191.1,151,162.7,158.2z"/>
</g>
</svg>
