<?xml version="1.0" encoding="utf-8"?>
<!-- Generator: Adobe Illustrator 18.0.0, SVG Export Plug-In . SVG Version: 6.00 Build 0)  -->
<!DOCTYPE svg PUBLIC "-//W3C//DTD SVG 1.1//EN" "http://www.w3.org/Graphics/SVG/1.1/DTD/svg11.dtd">
<svg version="1.1" id="Layer_1" xmlns="http://www.w3.org/2000/svg" xmlns:xlink="http://www.w3.org/1999/xlink" x="0px" y="0px"
	 viewBox="0 0 220.1 220.1" enable-background="new 0 0 220.1 220.1" xml:space="preserve">
<path fill="#FFFFFF" d="M220.1,16.3c0-9.5-7.3-16.2-15.9-16.2C141.5,0,78.7,0,15.9,0.1c-5.5,0-10,2.4-13.2,7c-2,2.8-2.7,6-2.7,9.4
	c0,22.8,0,45.6,0,68.4c0,39.5,0.1,79,0,118.5c0,9.8,7.5,16.8,16.8,16.8c22.7-0.1,45.4,0,68,0c39.8,0,79.5,0,119.2,0
	c5.2,0,9.5-2.1,12.7-6.3c2.4-3,3.4-6.6,3.3-10.4c0-31.1,0-62.2,0-93.4C220.1,78.7,220.1,47.5,220.1,16.3z M186.1,194.7
	c-0.3,0-0.6,0.3-0.9,0.3H34.9c-1.1,0-2.3-0.4-3.4-0.7c-3.2-1-5.9-4.1-6.1-7.4c0-0.5-0.4-1.1-0.4-1.6V93.4c0-0.2,18.4-0.3,19.4-0.1
	c-4,15.9-2.4,31.3,4.7,46c5.7,11.9,14.4,21.3,25.6,28.2c22.4,13.8,51,13.2,72.8-1.5c11.8-8,20.4-18.6,25.5-32
	c5.1-13.3,5.8-27,2.3-40.8c0.6-0.2,17.4-0.2,19-0.1c0,0.2,0.1,0.4,0.1,0.6c0,0.1,0,0.3,0,0.4c0,30.3,0,60.7,0,91
	c0,1.1-0.1,2.5-0.4,3.5C192.8,192.3,189.8,194.5,186.1,194.7z M194.4,34.1c0,8.5,0,17,0,25.5c0,4.6-3.7,8.3-8.3,8.3
	c-4.3,0-8.6,0-12.8,0c-4.2,0-8.4,0-12.6,0c-3.9,0-7.1-2.5-8.1-6.2c-0.2-0.7-0.3-1.4-0.3-2.1c0-8.5,0-17,0-25.4
	c0-4.6,3.7-8.3,8.3-8.4c8.5,0,16.9,0,25.4,0C190.6,25.7,194.4,29.4,194.4,34.1z M152.2,110.1c0,23.2-18.9,42.1-42.2,42.1
	c-23.3,0-42.1-18.8-42.1-42.2c-0.1-22.9,18.5-42.1,42.2-42.2C133.4,67.9,152.3,86.8,152.2,110.1z"/>
</svg>
