<?xml version="1.0" encoding="utf-8"?>
<!-- Generator: Adobe Illustrator 18.0.0, SVG Export Plug-In . SVG Version: 6.00 Build 0)  -->
<!DOCTYPE svg PUBLIC "-//W3C//DTD SVG 1.1//EN" "http://www.w3.org/Graphics/SVG/1.1/DTD/svg11.dtd">
<svg version="1.1" id="Layer_1" xmlns="http://www.w3.org/2000/svg" xmlns:xlink="http://www.w3.org/1999/xlink" x="0px" y="0px"
	 viewBox="0 0 220.1 220.1" enable-background="new 0 0 220.1 220.1" xml:space="preserve">
<path fill="#FFFFFF" d="M220.2,16.4c0-9.5-7.3-16.2-15.9-16.2C141.6,0.1,78.8,0.1,16,0.2c-5.5,0-10,2.4-13.2,7c-2,2.8-2.7,6-2.7,9.4
	c0,22.8,0,45.6,0,68.4c0,39.5,0.1,79,0,118.5c0,9.8,7.5,16.8,16.8,16.7c22.7-0.1,45.4,0,68,0c39.8,0,79.5,0,119.3,0
	c5.2,0,9.5-2.1,12.7-6.2c2.4-3.1,3.3-6.6,3.3-10.4c0-31.1,0-62.2,0-93.4C220.2,78.9,220.2,47.6,220.2,16.4z M82.7,165.1
	c-30.3,0-54.9-24.6-54.9-54.9c0-30.3,24.6-54.9,54.9-54.9c14.8,0,26.7,5.5,36.2,14.3L103,85v0c-6-5.5-12.6-8.3-20.8-8.3
	c-18.1,0-32.6,15.3-32.6,33.4c0,18.1,14.8,33.8,33,33.8c16.4,0,27.7-8.9,30-21.9H82v-21h52.4c0.7,3,1.1,6.9,1.1,10.9
	C135.4,143.4,114.4,165.1,82.7,165.1z M191,118.1h-17v17h-13v-17h-18v-14h18v-17h13v17h17V118.1z"/>
</svg>
